<svg width="38" height="22" viewBox="0 0 38 22" fill="none" xmlns="http://www.w3.org/2000/svg">
<path d="M8.58333 4.74998V0.583313H37.75V4.74998H8.58333ZM8.58333 13.0833V8.91665H37.75V13.0833H8.58333ZM8.58333 21.4166V17.25H37.75V21.4166H8.58333ZM2.33333 4.74998C1.74306 4.74998 1.24826 4.55033 0.848958 4.15102C0.449653 3.75172 0.25 3.25692 0.25 2.66665C0.25 2.07637 0.449653 1.58158 0.848958 1.18227C1.24826 0.782966 1.74306 0.583313 2.33333 0.583313C2.92361 0.583313 3.4184 0.782966 3.81771 1.18227C4.21701 1.58158 4.41667 2.07637 4.41667 2.66665C4.41667 3.25692 4.21701 3.75172 3.81771 4.15102C3.4184 4.55033 2.92361 4.74998 2.33333 4.74998ZM2.33333 13.0833C1.74306 13.0833 1.24826 12.8837 0.848958 12.4844C0.449653 12.0851 0.25 11.5903 0.25 11C0.25 10.4097 0.449653 9.91491 0.848958 9.51561C1.24826 9.1163 1.74306 8.91665 2.33333 8.91665C2.92361 8.91665 3.4184 9.1163 3.81771 9.51561C4.21701 9.91491 4.41667 10.4097 4.41667 11C4.41667 11.5903 4.21701 12.0851 3.81771 12.4844C3.4184 12.8837 2.92361 13.0833 2.33333 13.0833ZM2.33333 21.4166C1.74306 21.4166 1.24826 21.217 0.848958 20.8177C0.449653 20.4184 0.25 19.9236 0.25 19.3333C0.25 18.743 0.449653 18.2482 0.848958 17.8489C1.24826 17.4496 1.74306 17.25 2.33333 17.25C2.92361 17.25 3.4184 17.4496 3.81771 17.8489C4.21701 18.2482 4.41667 18.743 4.41667 19.3333C4.41667 19.9236 4.21701 20.4184 3.81771 20.8177C3.4184 21.217 2.92361 21.4166 2.33333 21.4166Z" fill="#D2B48C"/>
</svg>
