<svg width="42" height="42" viewBox="0 0 42 42" fill="none" xmlns="http://www.w3.org/2000/svg">
<path d="M10.3333 31.6667H12.7083L29 15.375L26.625 13L10.3333 29.2917V31.6667ZM7 35V27.9167L29 5.95833C29.3333 5.65278 29.7014 5.41667 30.1042 5.25C30.5069 5.08333 30.9306 5 31.375 5C31.8194 5 32.25 5.08333 32.6667 5.25C33.0833 5.41667 33.4444 5.66667 33.75 6L36.0417 8.33333C36.375 8.63889 36.6181 9 36.7708 9.41667C36.9236 9.83333 37 10.25 37 10.6667C37 11.1111 36.9236 11.5347 36.7708 11.9375C36.6181 12.3403 36.375 12.7083 36.0417 13.0417L14.0833 35H7ZM27.7917 14.2083L26.625 13L29 15.375L27.7917 14.2083Z" fill="#242424"/>
<path d="M8.33333 37C7.41667 37 6.63194 36.6736 5.97917 36.0208C5.32639 35.3681 5 34.5833 5 33.6667V10.3333C5 9.41667 5.32639 8.63194 5.97917 7.97917C6.63194 7.32639 7.41667 7 8.33333 7H31.6667C32.5833 7 33.3681 7.32639 34.0208 7.97917C34.6736 8.63194 35 9.41667 35 10.3333V33.6667C35 34.5833 34.6736 35.3681 34.0208 36.0208C33.3681 36.6736 32.5833 37 31.6667 37H8.33333ZM8.33333 33.6667H31.6667V10.3333H8.33333V33.6667Z" fill="#242424"/>
</svg>
