<svg width="50" height="50" viewBox="0 0 50 50" fill="none" xmlns="http://www.w3.org/2000/svg">
<path d="M25 45.8333C22.1181 45.8333 19.4097 45.2864 16.875 44.1927C14.3403 43.0989 12.1354 41.6146 10.2604 39.7396C8.38542 37.8646 6.90104 35.6597 5.80729 33.125C4.71354 30.5903 4.16667 27.8819 4.16667 25C4.16667 22.118 4.71354 19.4097 5.80729 16.875C6.90104 14.3403 8.38542 12.1354 10.2604 10.2604C12.1354 8.38541 14.3403 6.90103 16.875 5.80728C19.4097 4.71353 22.1181 4.16666 25 4.16666C27.8819 4.16666 30.5903 4.71353 33.125 5.80728C35.6597 6.90103 37.8646 8.38541 39.7396 10.2604C41.6146 12.1354 43.099 14.3403 44.1927 16.875C45.2865 19.4097 45.8333 22.118 45.8333 25C45.8333 27.8819 45.2865 30.5903 44.1927 33.125C43.099 35.6597 41.6146 37.8646 39.7396 39.7396C37.8646 41.6146 35.6597 43.0989 33.125 44.1927C30.5903 45.2864 27.8819 45.8333 25 45.8333ZM25 41.6667C29.6528 41.6667 33.5938 40.0521 36.8229 36.8229C40.0521 33.5937 41.6667 29.6528 41.6667 25C41.6667 20.3472 40.0521 16.4062 36.8229 13.1771C33.5938 9.94791 29.6528 8.33332 25 8.33332C20.3472 8.33332 16.4063 9.94791 13.1771 13.1771C9.94792 16.4062 8.33333 20.3472 8.33333 25C8.33333 29.6528 9.94792 33.5937 13.1771 36.8229C16.4063 40.0521 20.3472 41.6667 25 41.6667Z" fill="#D2B48C"/>
<path d="M25 25C23.0903 25 21.4554 24.32 20.0955 22.96C18.7355 21.6001 18.0556 19.9653 18.0556 18.0555C18.0556 16.1458 18.7355 14.511 20.0955 13.151C21.4554 11.7911 23.0903 11.1111 25 11.1111C26.9097 11.1111 28.5446 11.7911 29.9045 13.151C31.2645 14.511 31.9444 16.1458 31.9444 18.0555C31.9444 19.9653 31.2645 21.6001 29.9045 22.96C28.5446 24.32 26.9097 25 25 25ZM11.1111 38.8889V34.0277C11.1111 33.044 11.3643 32.1397 11.8707 31.3151C12.377 30.4904 13.0498 29.8611 13.8889 29.4271C15.6829 28.5301 17.5058 27.8573 19.3576 27.4088C21.2095 26.9603 23.0903 26.7361 25 26.7361C26.9097 26.7361 28.7905 26.9603 30.6424 27.4088C32.4942 27.8573 34.3171 28.5301 36.1111 29.4271C36.9502 29.8611 37.623 30.4904 38.1293 31.3151C38.6357 32.1397 38.8889 33.044 38.8889 34.0277V38.8889H11.1111ZM14.5833 35.4166H35.4167V34.0277C35.4167 33.7095 35.3371 33.4201 35.178 33.1597C35.0188 32.8993 34.809 32.6967 34.5486 32.5521C32.9861 31.7708 31.4091 31.1849 29.8177 30.7942C28.2263 30.4036 26.6204 30.2083 25 30.2083C23.3796 30.2083 21.7737 30.4036 20.1823 30.7942C18.5909 31.1849 17.0139 31.7708 15.4514 32.5521C15.191 32.6967 14.9812 32.8993 14.8221 33.1597C14.6629 33.4201 14.5833 33.7095 14.5833 34.0277V35.4166ZM25 21.5278C25.9549 21.5278 26.7723 21.1878 27.4523 20.5078C28.1322 19.8278 28.4722 19.0104 28.4722 18.0555C28.4722 17.1007 28.1322 16.2832 27.4523 15.6033C26.7723 14.9233 25.9549 14.5833 25 14.5833C24.0451 14.5833 23.2277 14.9233 22.5477 15.6033C21.8678 16.2832 21.5278 17.1007 21.5278 18.0555C21.5278 19.0104 21.8678 19.8278 22.5477 20.5078C23.2277 21.1878 24.0451 21.5278 25 21.5278Z" fill="#D2B48C"/>
</svg>
